<?xml version="1.0" encoding="utf-8"?>
<!-- Generator: Adobe Illustrator 16.0.0, SVG Export Plug-In . SVG Version: 6.00 Build 0)  -->
<!DOCTYPE svg PUBLIC "-//W3C//DTD SVG 1.1//EN" "http://www.w3.org/Graphics/SVG/1.1/DTD/svg11.dtd">
<svg version="1.1" id="Layer_1" xmlns="http://www.w3.org/2000/svg" xmlns:xlink="http://www.w3.org/1999/xlink" x="0px" y="0px"
	 width="300px" height="258.883px" viewBox="0 0 300 258.883" enable-background="new 0 0 300 258.883" xml:space="preserve">
<polygon fill="#FFFFFF" points="93,105.378 93,258.883 1.25,258.883 "/>
<polygon fill="#FFFFFF" points="128.036,181.883 111,181.883 111,258.883 181.262,258.883 "/>
<path fill="#FFFFFF" d="M150.372,0l-28.42,48.883h16.067c17.578,0,32.502,2.773,44.671,7.334L150.372,0z"/>
<path fill="#FFFFFF" d="M183.637,81.643c-9.122-7.601-24.424-11.76-46-11.76H111v94h26.637c22.24,0,37.637-2.163,46.381-9.199
	c8.744-7.13,13.114-17.542,13.114-34.556C197.133,102.07,192.67,89.244,183.637,81.643z"/>
<path fill="#FFFFFF" d="M222.704,125.947c-0.864,18.063-6.851,32.54-17.97,43.183c-12.064,11.689-28.698,17.562-49.893,17.562
	l54.461,72.191h90.196L222.704,125.947z"/>
<polygon points="10,-93.277 10,-77.117 0.31,-77.117 "/>
<polygon points="19.25,-77.117 12,-77.117 12,-85.117 13.65,-85.117 "/>
<path d="M19.4-98.397c-1.28-0.48-2.851-0.72-4.7-0.72h-1.69l2.99-5.17L19.4-98.397z"/>
<path d="M20.92-91.737c0,1.79-0.46,2.9-1.38,3.65c-0.92,0.74-2.54,0.97-4.88,0.97H12v-10h2.66c2.27,0,3.88,0.49,4.84,1.29
	C20.45-95.027,20.92-93.637,20.92-91.737z"/>
<path d="M31.69-77.117H22.2l-5.73-7.6c2.23,0,3.98-0.62,5.25-1.85c1.17-1.12,1.8-2.64,1.891-4.54L31.69-77.117z"/>
<polygon points="54.313,-73.117 70,-100.29 85.688,-73.117 "/>
<g>
	<path fill="#FFFFFF" d="M80.355-67.601h-3.045l-9.662-13.122h-1.502v13.122h-2.502v-27.521h5.059c2.981,0,5.215,0.619,6.699,1.861
		c1.484,1.241,2.229,3.12,2.229,5.64c0,2.144-0.637,3.828-1.91,5.056c-1.27,1.229-3.022,1.842-5.253,1.842L80.355-67.601z
		 M66.146-92.94v10.17h2.517c2.333,0,3.957-0.374,4.88-1.119c0.922-0.746,1.379-2.015,1.379-3.807c0-1.891-0.473-3.239-1.426-4.041
		c-0.955-0.802-2.563-1.203-4.833-1.203H66.146z"/>
</g>
</svg>
