<?xml version="1.0" encoding="utf-8"?>
<!-- Generator: Adobe Illustrator 16.0.0, SVG Export Plug-In . SVG Version: 6.00 Build 0)  -->
<!DOCTYPE svg PUBLIC "-//W3C//DTD SVG 1.1//EN" "http://www.w3.org/Graphics/SVG/1.1/DTD/svg11.dtd">
<svg version="1.1" id="Layer_1" xmlns="http://www.w3.org/2000/svg" xmlns:xlink="http://www.w3.org/1999/xlink" x="0px" y="0px"
	 width="154.667px" height="154.667px" viewBox="0 0 154.667 154.667" enable-background="new 0 0 154.667 154.667"
	 xml:space="preserve">
<path fill="#FFFFFF" d="M85.16,78.387c-1.34-1.56-3.17-2.35-5.5-2.35c-2.32,0-4.16,0.84-5.52,2.5c-1.35,1.67-2.03,3.95-2.03,6.87
	c0,2.87,0.65,5.09,1.94,6.65c1.3,1.55,3.15,2.33,5.56,2.33c2.35,0,4.19-0.85,5.54-2.55c1.35-1.69,2.02-4.03,2.02-7.01
	C87.17,82.097,86.5,79.957,85.16,78.387z M85.16,78.387c-1.34-1.56-3.17-2.35-5.5-2.35c-2.32,0-4.16,0.84-5.52,2.5
	c-1.35,1.67-2.03,3.95-2.03,6.87c0,2.87,0.65,5.09,1.94,6.65c1.3,1.55,3.15,2.33,5.56,2.33c2.35,0,4.19-0.85,5.54-2.55
	c1.35-1.69,2.02-4.03,2.02-7.01C87.17,82.097,86.5,79.957,85.16,78.387z M77.33,2.337c-41.42,0-75,33.58-75,75s33.58,75,75,75
	c41.43,0,75-33.58,75-75S118.76,2.337,77.33,2.337z M37.07,96.007c-0.49,0.49-1.1,0.74-1.82,0.74s-1.32-0.25-1.82-0.74
	c-0.49-0.49-0.74-1.1-0.74-1.82c0-0.72,0.25-1.32,0.74-1.82c0.5-0.49,1.1-0.74,1.82-0.74s1.33,0.25,1.82,0.74
	c0.5,0.5,0.74,1.1,0.74,1.82C37.81,94.907,37.57,95.517,37.07,96.007z M62.52,76.597c-0.34-0.1-0.7-0.19-1.06-0.26
	c-0.36-0.06-0.74-0.1-1.06-0.1c-1.87,0-3.76,0.87-5.07,2.61c-1.32,1.75-2.33,3.91-2.33,6.51v11.64h-3v-22h3v3.5
	c1-1.92,2.61-3.29,3.71-4.09c1.1-0.8,2.6-1.2,4.06-1.2c0.44,0,0.94,0.04,1.38,0.12c0.45,0.09,0.91,0.2,1.34,0.35L62.52,76.597z
	 M90,96.997h-3v-4.77c-1,1.64-1.71,2.89-3.04,3.76c-1.33,0.86-2.96,1.29-4.77,1.29c-3.19,0-5.7-1.1-7.65-3.29
	c-1.95-2.19-2.88-5.09-2.88-8.68c0-3.57,1-6.48,2.92-8.73c1.93-2.25,4.46-3.37,7.51-3.37c1.9,0,3.39,0.41,4.77,1.24
	c1.38,0.83,2.14,2.05,3.14,3.65v-3.1h3V96.997z M121,96.997h-3v-4.77c0,1.66-1.35,2.92-2.67,3.77c-1.32,0.85-2.595,1.28-4.385,1.28
	c-3.2,0-5.708-1.1-7.657-3.29c-1.95-2.19-2.899-5.09-2.899-8.68c0-3.57,0.956-6.48,2.875-8.73c1.93-2.25,4.378-3.37,7.418-3.37
	c1.89,0,3.194,0.41,4.554,1.24c1.36,0.83,2.764,2.05,2.764,3.65v-20.1h3V96.997z M111.43,76.037c-2.32,0-4.17,0.84-5.52,2.5
	c-1.36,1.67-2.03,3.95-2.03,6.87c0,2.87,0.64,5.09,1.94,6.65c1.3,1.55,3.15,2.33,5.56,2.33c2.33,0,4.16-0.85,5.5-2.55
	c1.34-1.69,2.01-4.03,2.01-7.01c0-2.73-0.66-4.87-1.99-6.44C115.58,76.827,113.76,76.037,111.43,76.037z M79.66,76.037
	c-2.32,0-4.16,0.84-5.52,2.5c-1.35,1.67-2.03,3.95-2.03,6.87c0,2.87,0.65,5.09,1.94,6.65c1.3,1.55,3.15,2.33,5.56,2.33
	c2.35,0,4.19-0.85,5.54-2.55c1.35-1.69,2.02-4.03,2.02-7.01c0-2.73-0.67-4.87-2.01-6.44C83.82,76.827,81.99,76.037,79.66,76.037z"/>
</svg>
