<?xml version="1.0" encoding="utf-8"?>
<!-- Generator: Adobe Illustrator 16.0.0, SVG Export Plug-In . SVG Version: 6.00 Build 0)  -->
<!DOCTYPE svg PUBLIC "-//W3C//DTD SVG 1.1//EN" "http://www.w3.org/Graphics/SVG/1.1/DTD/svg11.dtd">
<svg version="1.1" id="Layer_1" xmlns="http://www.w3.org/2000/svg" xmlns:xlink="http://www.w3.org/1999/xlink" x="0px" y="0px"
	 width="154.667px" height="154.667px" viewBox="0 0 154.667 154.667" enable-background="new 0 0 154.667 154.667"
	 xml:space="preserve">
<circle fill="#FFFFFF" cx="77.333" cy="77.333" r="75"/>
<g>
	<path stroke="#000000" stroke-miterlimit="10" d="M32.693,94.188c0-0.72,0.246-1.326,0.74-1.819
		c0.493-0.494,1.101-0.741,1.819-0.741c0.72,0,1.326,0.247,1.82,0.741c0.493,0.493,0.74,1.1,0.74,1.819s-0.247,1.326-0.74,1.82
		c-0.494,0.493-1.101,0.74-1.82,0.74c-0.719,0-1.326-0.247-1.819-0.74C32.939,95.515,32.693,94.908,32.693,94.188z"/>
	<path stroke="#000000" stroke-miterlimit="10" d="M53.718,78.5c1.138-1.924,2.255-3.288,3.352-4.091
		c1.096-0.804,2.372-1.205,3.828-1.205c0.435,0,0.874,0.042,1.317,0.125c0.443,0.084,0.882,0.201,1.317,0.352l-1.004,2.912
		c-0.335-0.101-0.682-0.185-1.041-0.251c-0.36-0.066-0.707-0.101-1.042-0.101c-1.857,0-3.443,0.87-4.757,2.61
		c-1.314,1.741-1.971,3.907-1.971,6.501v10.944h-3.087V74.032h3.087V78.5z"/>
	<path stroke="#000000" stroke-miterlimit="10" d="M87.118,96.297V92.23c-0.736,1.641-1.77,2.892-3.101,3.753
		c-1.33,0.862-2.898,1.293-4.706,1.293c-3.196,0-5.77-1.097-7.719-3.288c-1.949-2.192-2.925-5.087-2.925-8.686
		c0-3.564,0.963-6.472,2.887-8.723c1.925-2.25,4.409-3.376,7.455-3.376c1.892,0,3.527,0.414,4.908,1.242
		c1.38,0.828,2.447,2.046,3.2,3.652v-4.066h3.087v22.265H87.118z M72.107,85.403c0,2.878,0.648,5.096,1.945,6.651
		c1.297,1.557,3.15,2.335,5.56,2.335c2.343,0,4.188-0.85,5.535-2.548c1.348-1.698,2.021-4.037,2.021-7.016
		c0-2.728-0.669-4.874-2.008-6.438c-1.339-1.565-3.172-2.348-5.497-2.348c-2.326,0-4.167,0.833-5.522,2.498
		S72.107,82.491,72.107,85.403z"/>
	<path stroke="#000000" stroke-miterlimit="10" d="M118.836,96.297V92.23c-0.736,1.657-1.766,2.912-3.087,3.766
		c-1.322,0.854-2.879,1.28-4.669,1.28c-3.196,0-5.77-1.097-7.719-3.288c-1.95-2.192-2.925-5.087-2.925-8.686
		c0-3.564,0.963-6.472,2.887-8.723c1.925-2.25,4.41-3.376,7.455-3.376c1.892,0,3.519,0.414,4.883,1.242
		c1.363,0.828,2.422,2.046,3.175,3.652V57.39h3.138v38.907H118.836z M103.876,85.403c0,2.878,0.648,5.096,1.945,6.651
		c1.297,1.557,3.15,2.335,5.56,2.335c2.326,0,4.158-0.85,5.497-2.548s2.009-4.037,2.009-7.016c0-2.728-0.661-4.874-1.983-6.438
		c-1.322-1.565-3.146-2.348-5.472-2.348s-4.167,0.833-5.522,2.498S103.876,82.491,103.876,85.403z"/>
</g>
</svg>
